<svg width="238" height="59" viewBox="0 0 238 59" fill="none" xmlns="http://www.w3.org/2000/svg">
<g filter="url(#filter0_d_1_588)">
<path d="M20.3365 27.2155C20.3365 25.8808 20.1545 24.9253 19.7905 24.349C19.4265 23.7727 18.8502 23.4238 18.0615 23.3025C17.2728 23.1812 16.2263 23.1508 14.922 23.2115L11.6005 23.348V33.7675C11.6005 34.5865 11.5853 35.2842 11.555 35.8605C11.555 36.4368 11.5247 36.9222 11.464 37.3165L20.1545 37.18C21.4892 37.1497 22.6418 36.9373 23.6125 36.543C24.5832 36.1183 25.3415 35.3903 25.8875 34.359C26.4335 33.3277 26.7065 31.9172 26.7065 30.1275H28.2535L27.9805 39H4.5025V37.4985C5.65517 37.4378 6.44383 37.18 6.8685 36.725C7.29317 36.2397 7.52067 35.5875 7.551 34.7685C7.61167 33.9192 7.642 32.9637 7.642 31.902V12.246C7.642 11.6393 7.65717 11.063 7.6875 10.517C7.71783 9.94066 7.74817 9.425 7.7785 8.97C7.2325 9.00033 6.6865 9.03066 6.1405 9.061C5.5945 9.09133 5.0485 9.12167 4.5025 9.152V7.15H26.388L26.6155 15.1125H25.114C25.114 13.3228 24.841 11.973 24.295 11.063C23.749 10.1227 23.0058 9.50083 22.0655 9.1975C21.1555 8.86383 20.1242 8.71217 18.9715 8.7425L15.0585 8.8335C13.9362 8.86383 13.1323 9.07616 12.647 9.4705C12.1617 9.86483 11.8583 10.4563 11.737 11.245C11.646 12.0033 11.6005 13.0043 11.6005 14.248V21.528L20.1545 21.5735L19.836 17.6605H21.838V27.2155H20.3365ZM41.6337 39.728C40.117 39.728 38.7672 39.5157 37.5842 39.091C36.4012 38.6967 35.4305 38.2417 34.6722 37.726L34.8542 39.3185H32.9432L32.6702 31.4925H34.0807C34.1414 32.7362 34.4902 33.8585 35.1272 34.8595C35.7642 35.8302 36.5832 36.5885 37.5842 37.1345C38.5852 37.6805 39.662 37.9535 40.8147 37.9535C41.6034 37.9535 42.3769 37.8322 43.1352 37.5895C43.8935 37.3165 44.5305 36.9222 45.0462 36.4065C45.5619 35.8605 45.8197 35.178 45.8197 34.359C45.8197 33.5097 45.5619 32.812 45.0462 32.266C44.5609 31.6897 43.9087 31.1892 43.0897 30.7645C42.2707 30.3398 41.391 29.9455 40.4507 29.5815C39.5407 29.2175 38.6307 28.8383 37.7207 28.444C36.8107 28.0497 35.9614 27.5795 35.1727 27.0335C34.4144 26.4875 33.8077 25.8202 33.3527 25.0315C32.8977 24.2428 32.6702 23.2722 32.6702 22.1195C32.6702 21.4825 32.7915 20.7848 33.0342 20.0265C33.2769 19.2682 33.6864 18.5553 34.2627 17.888C34.839 17.1903 35.6277 16.6292 36.6287 16.2045C37.6297 15.7495 38.9037 15.522 40.4507 15.522C41.2697 15.522 42.1797 15.6585 43.1807 15.9315C44.1817 16.2045 45.1524 16.7202 46.0927 17.4785L46.0017 15.7495H47.9127V23.712H46.4567C46.396 22.6503 46.1534 21.6342 45.7287 20.6635C45.304 19.6625 44.6822 18.8435 43.8632 18.2065C43.0442 17.5392 41.9825 17.2055 40.6782 17.2055C39.2829 17.2055 38.1909 17.5543 37.4022 18.252C36.6135 18.9497 36.2192 19.7535 36.2192 20.6635C36.2192 21.6038 36.5074 22.3925 37.0837 23.0295C37.6904 23.6362 38.4639 24.167 39.4042 24.622C40.3445 25.077 41.3455 25.5168 42.4072 25.9415C43.5599 26.4268 44.6822 26.9577 45.7742 27.534C46.8662 28.1103 47.761 28.8383 48.4587 29.718C49.1564 30.5673 49.5052 31.6745 49.5052 33.0395C49.5052 34.5562 49.1109 35.815 48.3222 36.816C47.5639 37.817 46.578 38.545 45.3647 39C44.1817 39.4853 42.938 39.728 41.6337 39.728ZM64.4697 39.728C62.4374 39.728 60.5567 39.273 58.8277 38.363C57.1291 37.4227 55.7641 36.088 54.7327 34.359C53.7317 32.5997 53.2312 30.4915 53.2312 28.0345C53.2312 26.4572 53.5194 24.9253 54.0957 23.439C54.6721 21.9527 55.4759 20.618 56.5072 19.435C57.5689 18.2217 58.8277 17.2662 60.2837 16.5685C61.7397 15.8708 63.3474 15.522 65.1067 15.522C66.8054 15.522 68.2766 15.7798 69.5202 16.2955C70.7942 16.8112 71.7801 17.4937 72.4777 18.343C73.1754 19.1923 73.5242 20.1175 73.5242 21.1185C73.5242 21.7858 73.3422 22.3622 72.9782 22.8475C72.6142 23.3025 72.0834 23.53 71.3857 23.53C70.6274 23.5603 70.0814 23.3328 69.7477 22.8475C69.4444 22.3318 69.2927 21.8768 69.2927 21.4825C69.2927 21.1792 69.3382 20.8758 69.4292 20.5725C69.5202 20.2388 69.7022 19.9355 69.9752 19.6625C69.7326 18.9345 69.3079 18.4037 68.7012 18.07C68.0946 17.706 67.4576 17.4785 66.7902 17.3875C66.1532 17.2662 65.6224 17.2055 65.1977 17.2055C63.1351 17.2055 61.3909 18.0397 59.9652 19.708C58.5699 21.346 57.8722 23.7423 57.8722 26.897C57.8722 28.9293 58.1907 30.7342 58.8277 32.3115C59.4951 33.8888 60.4202 35.1325 61.6032 36.0425C62.7862 36.9222 64.1512 37.362 65.6982 37.362C67.1239 37.362 68.4889 36.9828 69.7932 36.2245C71.0976 35.4662 72.1137 34.541 72.8417 33.449L74.0247 34.359C73.2361 35.633 72.2806 36.6643 71.1582 37.453C70.0662 38.2417 68.9287 38.818 67.7457 39.182C66.5931 39.546 65.5011 39.728 64.4697 39.728ZM91.3272 39C91.2362 38.4843 91.1755 38.0293 91.1452 37.635C91.1148 37.2407 91.0693 36.8312 91.0087 36.4065C89.9773 37.4378 88.855 38.2568 87.6417 38.8635C86.4587 39.4398 85.1998 39.728 83.8652 39.728C81.5598 39.728 79.846 39.2123 78.7237 38.181C77.6013 37.1193 77.0402 35.8302 77.0402 34.3135C77.0402 32.9182 77.4648 31.72 78.3142 30.719C79.1938 29.6877 80.3162 28.8535 81.6812 28.2165C83.0765 27.5492 84.578 27.0638 86.1857 26.7605C87.8237 26.4268 89.401 26.2752 90.9177 26.3055V23.4845C90.9177 22.4228 90.8267 21.4218 90.6447 20.4815C90.4627 19.5412 90.0683 18.7677 89.4617 18.161C88.855 17.5543 87.8843 17.2358 86.5497 17.2055C85.67 17.1752 84.76 17.342 83.8197 17.706C82.9097 18.07 82.2423 18.6918 81.8177 19.5715C82.0603 19.8142 82.212 20.1023 82.2727 20.436C82.3637 20.7393 82.4092 21.0275 82.4092 21.3005C82.4092 21.6645 82.2575 22.0892 81.9542 22.5745C81.6508 23.0295 81.12 23.2418 80.3617 23.2115C79.7247 23.2115 79.2393 22.9992 78.9057 22.5745C78.572 22.1195 78.4052 21.5887 78.4052 20.982C78.4052 19.9507 78.7843 19.0255 79.5427 18.2065C80.3313 17.3875 81.4082 16.7353 82.7732 16.25C84.1382 15.7647 85.6852 15.522 87.4142 15.522C89.9622 15.522 91.8428 16.2045 93.0562 17.5695C94.2695 18.9042 94.861 21.0275 94.8307 23.9395C94.8307 25.0618 94.8307 26.1993 94.8307 27.352C94.8307 28.4743 94.8155 29.6118 94.7852 30.7645C94.7852 31.8868 94.7852 33.0243 94.7852 34.177C94.7852 34.6623 94.77 35.1477 94.7397 35.633C94.7093 36.1183 94.6638 36.6643 94.6032 37.271C95.1492 37.2407 95.68 37.2103 96.1957 37.18C96.7417 37.1497 97.2877 37.1193 97.8337 37.089V39H91.3272ZM90.9177 27.8525C89.8863 27.8828 88.7943 28.0193 87.6417 28.262C86.5193 28.4743 85.4728 28.808 84.5022 29.263C83.5618 29.718 82.7883 30.3247 82.1817 31.083C81.6053 31.811 81.3323 32.7058 81.3627 33.7675C81.4233 34.8898 81.7873 35.7392 82.4547 36.3155C83.1523 36.8615 83.9713 37.1345 84.9117 37.1345C86.1553 37.1345 87.2322 36.907 88.1422 36.452C89.0825 35.9667 90.0077 35.2993 90.9177 34.45C90.8873 34.1163 90.8722 33.7523 90.8722 33.358C90.8722 32.9637 90.8722 32.5542 90.8722 32.1295C90.8722 31.9778 90.8722 31.4925 90.8722 30.6735C90.9025 29.8545 90.9177 28.9142 90.9177 27.8525ZM100.547 50.6025V49.2375C101.487 49.2375 102.139 48.9948 102.503 48.5095C102.867 48.0545 103.079 47.4023 103.14 46.553C103.201 45.734 103.231 44.7785 103.231 43.6865L103.322 21.71C103.322 21.2247 103.322 20.7393 103.322 20.254C103.352 19.7687 103.413 19.2682 103.504 18.7525C102.958 18.7828 102.412 18.8132 101.866 18.8435C101.35 18.8738 100.82 18.9042 100.274 18.9345V17.0235C101.608 17.0235 102.609 16.9628 103.277 16.8415C103.974 16.7202 104.475 16.5685 104.778 16.3865C105.112 16.2045 105.385 16.0073 105.597 15.795H106.962C106.992 16.0983 107.023 16.4623 107.053 16.887C107.083 17.2813 107.114 17.7363 107.144 18.252C108.054 17.433 109.131 16.7808 110.375 16.2955C111.649 15.7798 112.923 15.522 114.197 15.522C115.956 15.522 117.594 15.977 119.111 16.887C120.627 17.797 121.856 19.1013 122.796 20.8C123.736 22.4683 124.207 24.4703 124.207 26.806C124.207 29.3843 123.661 31.6442 122.569 33.5855C121.507 35.5268 120.096 37.0435 118.337 38.1355C116.578 39.1972 114.667 39.728 112.604 39.728C111.542 39.728 110.557 39.5915 109.647 39.3185C108.767 39.0758 107.933 38.7118 107.144 38.2265V45.7795C107.144 46.3862 107.129 46.917 107.099 47.372C107.099 47.8573 107.053 48.3578 106.962 48.8735C107.447 48.8432 107.918 48.8128 108.373 48.7825C108.858 48.7825 109.343 48.7673 109.829 48.737V50.6025H100.547ZM112.513 37.908C113.969 37.908 115.213 37.4682 116.244 36.5885C117.306 35.6785 118.11 34.45 118.656 32.903C119.232 31.3257 119.52 29.536 119.52 27.534C119.52 25.896 119.277 24.3338 118.792 22.8475C118.337 21.3308 117.594 20.1023 116.563 19.162C115.562 18.2217 114.227 17.7515 112.559 17.7515C111.527 17.7515 110.526 18.0093 109.556 18.525C108.615 19.0103 107.827 19.6018 107.19 20.2995C107.19 20.4208 107.19 20.6028 107.19 20.8455C107.22 21.0578 107.235 21.4522 107.235 22.0285C107.235 22.5745 107.235 23.4087 107.235 24.531C107.235 25.623 107.22 27.1093 107.19 28.99C107.19 30.8707 107.19 33.2518 107.19 36.1335C107.948 36.7098 108.767 37.1497 109.647 37.453C110.557 37.7563 111.512 37.908 112.513 37.908ZM139.116 39.728C137.023 39.728 135.127 39.2427 133.429 38.272C131.76 37.271 130.441 35.8757 129.47 34.086C128.499 32.266 128.014 30.1275 128.014 27.6705C128.014 25.5472 128.484 23.5603 129.425 21.71C130.395 19.8597 131.745 18.3733 133.474 17.251C135.203 16.0983 137.205 15.522 139.48 15.522C140.754 15.522 141.937 15.7343 143.029 16.159C144.151 16.5533 145.137 17.1752 145.987 18.0245C146.836 18.8435 147.503 19.89 147.989 21.164C148.474 22.4077 148.717 23.8788 148.717 25.5775L132.701 25.8505C132.701 28.1558 132.943 30.1882 133.429 31.9475C133.944 33.6765 134.763 35.0263 135.886 35.997C137.008 36.9373 138.449 37.4075 140.208 37.4075C141.148 37.4075 142.104 37.2407 143.075 36.907C144.076 36.5733 145.001 36.1183 145.85 35.542C146.699 34.9657 147.382 34.3287 147.898 33.631L148.99 34.541C148.171 35.815 147.185 36.8312 146.032 37.5895C144.879 38.3478 143.696 38.8938 142.483 39.2275C141.27 39.5612 140.147 39.728 139.116 39.728ZM132.837 23.9395H144.44C144.44 22.8475 144.273 21.801 143.939 20.8C143.636 19.7687 143.12 18.9345 142.392 18.2975C141.664 17.6302 140.709 17.2965 139.526 17.2965C137.766 17.2965 136.295 17.8273 135.112 18.889C133.959 19.9203 133.201 21.6038 132.837 23.9395ZM156.315 39.728C155.617 39.728 154.995 39.455 154.449 38.909C153.934 38.3327 153.676 37.635 153.676 36.816C153.676 35.997 153.949 35.2993 154.495 34.723C155.041 34.1467 155.663 33.8585 156.36 33.8585C157.119 33.8585 157.74 34.1467 158.226 34.723C158.741 35.2993 158.999 35.997 158.999 36.816C158.999 37.635 158.726 38.3327 158.18 38.909C157.634 39.455 157.012 39.728 156.315 39.728Z" fill="white"/>
<path d="M167.503 38.6602C168.452 38.6602 169.285 38.401 170.003 37.8826C170.729 37.3562 171.195 36.6504 171.403 35.7651V33.552C171.363 33.552 171.12 33.5719 170.673 33.6118C170.234 33.6517 169.947 33.6756 169.812 33.6836C168.081 33.8351 166.873 34.1182 166.187 34.533C165.509 34.9477 165.17 35.6136 165.17 36.5308C165.17 37.2326 165.378 37.7629 165.792 38.1218C166.207 38.4807 166.777 38.6602 167.503 38.6602ZM171.845 40C171.726 39.4896 171.61 38.9393 171.499 38.3491C170.773 39.0749 170.091 39.5773 169.453 39.8564C168.815 40.1356 168.065 40.2751 167.204 40.2751C165.976 40.2751 164.987 39.9561 164.237 39.3181C163.495 38.6721 163.125 37.747 163.125 36.5427C163.125 35.2029 163.631 34.21 164.644 33.564C165.665 32.918 167.132 32.5152 169.046 32.3557C169.309 32.3318 169.704 32.2999 170.23 32.26C170.765 32.2122 171.164 32.1763 171.427 32.1523V30.9919C171.427 30.0668 171.211 29.3809 170.781 28.9343C170.35 28.4877 169.672 28.2644 168.747 28.2644C167.455 28.2644 166.151 28.5834 164.835 29.2214C164.795 29.1257 164.692 28.8506 164.524 28.396C164.357 27.9334 164.269 27.6942 164.261 27.6782C164.843 27.3512 165.533 27.092 166.331 26.9006C167.136 26.7013 167.954 26.6016 168.783 26.6016C170.418 26.6016 171.594 26.9604 172.312 27.6782C173.038 28.388 173.401 29.6003 173.401 31.3149V40H171.845ZM176.391 35.6216V26.8767H178.401V35.6455C178.401 36.2197 178.481 36.7062 178.64 37.105C178.808 37.5037 179.043 37.8148 179.346 38.0381C179.657 38.2534 180.004 38.4089 180.387 38.5046C180.778 38.6003 181.224 38.6482 181.727 38.6482C182.764 38.6482 183.569 38.4209 184.143 37.9663C184.726 37.5117 185.017 36.7381 185.017 35.6455V26.8767H187.026V35.6216C187.026 36.2915 186.931 36.8936 186.739 37.428C186.548 37.9623 186.289 38.4089 185.962 38.7678C185.643 39.1187 185.256 39.4098 184.801 39.6411C184.347 39.8724 183.864 40.0399 183.354 40.1436C182.851 40.2472 182.309 40.2991 181.727 40.2991C181.153 40.2991 180.61 40.2472 180.1 40.1436C179.589 40.0399 179.103 39.8724 178.64 39.6411C178.186 39.4019 177.791 39.1068 177.456 38.7559C177.129 38.397 176.87 37.9504 176.678 37.416C176.487 36.8817 176.391 36.2835 176.391 35.6216ZM194.192 40.2393C192.9 40.2393 191.983 39.9242 191.441 39.2942C190.898 38.6641 190.611 37.6473 190.579 36.2437V28.3601H188.629L188.713 27.0442L190.567 26.8767L191.249 23.874L192.565 23.8262V26.8767H196.214V28.3601H192.565V35.8848C192.565 36.8817 192.717 37.5835 193.02 37.9902C193.323 38.397 193.841 38.6003 194.575 38.6003C194.838 38.6003 195.408 38.5365 196.286 38.4089L196.369 39.988C195.42 40.1555 194.695 40.2393 194.192 40.2393ZM207.339 40V32.0686C207.339 30.7527 207.128 29.7957 206.705 29.1975C206.291 28.5994 205.561 28.3003 204.516 28.3003C203.511 28.3003 202.662 28.5515 201.968 29.054C201.282 29.5564 200.836 30.2064 200.628 31.0039C200.556 31.6021 200.521 32.268 200.521 33.0017V40H198.523V21.7805L200.521 21.6609V26.9963C200.521 27.4509 200.505 28.0132 200.473 28.6831C201.597 27.2954 203.089 26.6016 204.947 26.6016C207.874 26.6016 209.337 28.3202 209.337 31.7576V40H207.339ZM213.261 33.4683C213.261 35.0234 213.604 36.2716 214.29 37.2126C214.984 38.1458 215.993 38.6123 217.316 38.6123C218.624 38.6123 219.609 38.1458 220.271 37.2126C220.941 36.2795 221.276 35.0234 221.276 33.4443C221.276 31.8413 220.945 30.5812 220.283 29.6641C219.629 28.7389 218.628 28.2764 217.281 28.2764C215.973 28.2764 214.976 28.7469 214.29 29.688C213.604 30.6291 213.261 31.8892 213.261 33.4683ZM223.346 33.4324C223.346 35.4661 222.803 37.1169 221.719 38.385C220.634 39.6451 219.135 40.2751 217.221 40.2751C215.378 40.2751 213.911 39.6371 212.818 38.3611C211.734 37.085 211.191 35.4461 211.191 33.4443C211.191 31.4027 211.738 29.7518 212.83 28.4917C213.923 27.2316 215.422 26.6016 217.328 26.6016C219.203 26.6016 220.674 27.2356 221.743 28.5037C222.811 29.7638 223.346 31.4067 223.346 33.4324ZM232.067 26.7571C232.426 26.7571 232.753 26.781 233.048 26.8289L232.976 28.6711C232.609 28.6073 232.29 28.5754 232.019 28.5754C230.902 28.5754 229.993 28.9662 229.291 29.7478C228.597 30.5214 228.25 31.4824 228.25 32.6309V40H226.253C226.245 31.945 226.241 27.5706 226.241 26.8767H227.904L228.095 29.2334C228.55 28.4917 229.128 27.8936 229.83 27.439C230.531 26.9844 231.277 26.7571 232.067 26.7571Z" fill="white"/>
</g>
<defs>
<filter id="filter0_d_1_588" x="-2" y="0" width="240" height="58.6025" filterUnits="userSpaceOnUse" color-interpolation-filters="sRGB">
<feFlood flood-opacity="0" result="BackgroundImageFix"/>
<feColorMatrix in="SourceAlpha" type="matrix" values="0 0 0 0 0 0 0 0 0 0 0 0 0 0 0 0 0 0 127 0" result="hardAlpha"/>
<feOffset dy="4"/>
<feGaussianBlur stdDeviation="2"/>
<feComposite in2="hardAlpha" operator="out"/>
<feColorMatrix type="matrix" values="0 0 0 0 0 0 0 0 0 0 0 0 0 0 0 0 0 0 0.25 0"/>
<feBlend mode="normal" in2="BackgroundImageFix" result="effect1_dropShadow_1_588"/>
<feBlend mode="normal" in="SourceGraphic" in2="effect1_dropShadow_1_588" result="shape"/>
</filter>
</defs>
</svg>
