<svg width="296" height="150" viewBox="0 0 296 150" fill="none" xmlns="http://www.w3.org/2000/svg">
<g clip-path="url(#clip0_1_2166)">
<path d="M10 12C10 10.8954 10.8954 10 12 10H78C79.1046 10 80 10.8954 80 12V30C80 31.1046 79.1046 32 78 32H12C10.8954 32 10 31.1046 10 30V12Z" fill="#4AAEC2"/>
<path d="M17.4238 18.1069V20.3042C17.5439 20.3042 17.7915 20.3071 18.1665 20.313C18.5444 20.3188 18.8359 20.3218 19.041 20.3218C19.6006 20.3218 19.9902 20.2295 20.21 20.0449C20.4297 19.8574 20.5396 19.5615 20.5396 19.1572C20.5396 18.8027 20.4341 18.5391 20.2231 18.3662C20.0122 18.1934 19.6592 18.1069 19.1641 18.1069H17.4238ZM21.5898 24H20.7109L19.8145 21.9609C19.5713 21.4131 19.416 21.0835 19.3486 20.9722C19.1348 20.9868 18.8813 20.9941 18.5884 20.9941L17.4238 20.959V24H16.646V17.4258H18.7246C18.9648 17.4258 19.1772 17.4316 19.3618 17.4434C19.5464 17.4551 19.7295 17.4771 19.9111 17.5093C20.0957 17.5386 20.2554 17.5811 20.3901 17.6367C20.5249 17.6895 20.6509 17.7598 20.7681 17.8477C20.8853 17.9326 20.979 18.0352 21.0493 18.1553C21.1226 18.2754 21.1797 18.4189 21.2207 18.5859C21.2617 18.75 21.2822 18.936 21.2822 19.144C21.2822 19.5542 21.1738 19.9072 20.957 20.2031C20.7432 20.499 20.4385 20.7041 20.043 20.8184C20.043 20.8242 20.0723 20.877 20.1309 20.9766C20.1895 21.0762 20.2583 21.1992 20.3374 21.3457C20.4194 21.4893 20.4824 21.6094 20.5264 21.7061L21.5898 24ZM22.6533 24V17.5005H26.3799L26.3491 18.1729H23.4136V20.2998H26.2041V20.9634H23.4136V23.3276H26.4458L26.4106 24H22.6533ZM27.6807 24V17.5005H28.4453V23.3232H31.3062L31.2798 24H27.6807ZM35.3271 21.3018C34.709 19.5059 34.3677 18.4966 34.3032 18.2739C34.3032 18.2739 33.9473 19.2832 33.2354 21.3018H35.3271ZM36.3335 24L35.5732 21.939H32.9805L32.1938 24H31.4204L33.9165 17.4873H34.6943L37.1157 24H36.3335ZM42.5386 24H41.6641L39.8535 21.0952L37.9946 24H37.1685L39.3921 20.6074L37.3135 17.5005H38.1968L39.8799 20.1021L41.6289 17.5005H42.4419L40.3501 20.5942L42.5386 24ZM46.498 21.3018C45.8799 19.5059 45.5386 18.4966 45.4741 18.2739C45.4741 18.2739 45.1182 19.2832 44.4062 21.3018H46.498ZM47.5044 24L46.7441 21.939H44.1514L43.3647 24H42.5913L45.0874 17.4873H45.8652L48.2866 24H47.5044ZM50.6201 24H49.8555V18.1729H47.856V17.5005H52.6196V18.1729H50.6201V24ZM54.2192 24H53.459V17.5005H54.2192V24ZM56.333 20.7524C56.333 21.5874 56.5249 22.2437 56.9087 22.7212C57.2925 23.1958 57.8594 23.4331 58.6094 23.4331C59.3594 23.4331 59.9233 23.1958 60.3013 22.7212C60.6821 22.2466 60.8726 21.5903 60.8726 20.7524C60.8726 19.897 60.6807 19.2334 60.2969 18.7617C59.916 18.29 59.355 18.0542 58.6138 18.0542C57.8726 18.0542 57.3071 18.29 56.9175 18.7617C56.5278 19.2334 56.333 19.897 56.333 20.7524ZM61.6855 20.7524C61.6855 21.2476 61.6167 21.7002 61.479 22.1104C61.3442 22.5205 61.1479 22.8735 60.8901 23.1694C60.6353 23.4624 60.313 23.6909 59.9233 23.855C59.5337 24.0161 59.0957 24.0967 58.6094 24.0967C57.9531 24.0967 57.3906 23.9575 56.9219 23.6792C56.4561 23.3979 56.106 23.0083 55.8716 22.5103C55.6401 22.0093 55.5244 21.4219 55.5244 20.748C55.5244 19.708 55.7954 18.8877 56.3374 18.2871C56.8794 17.6865 57.6382 17.3862 58.6138 17.3862C59.5747 17.3862 60.3262 17.6895 60.8682 18.2959C61.4131 18.8994 61.6855 19.7183 61.6855 20.7524ZM68.0752 24H67.2139L63.8389 18.8848L63.6191 18.5815C63.6426 19.1968 63.6543 19.7461 63.6543 20.2295V24H62.9424V17.5005H63.7905L67.1743 22.6157L67.3984 22.9189C67.3779 21.9844 67.3677 21.4438 67.3677 21.2974V17.5005H68.0752V24Z" fill="white"/>
<rect width="296" height="150" fill="#F7F7F7"/>
</g>
<defs>
<clipPath id="clip0_1_2166">
<rect width="295.984" height="150" fill="white" transform="translate(-0.03125)"/>
</clipPath>
</defs>
</svg>
